{"glyphs":{":":{"x_min":0,"x_max":400,"ha":400,"o":"m 147 547 l 323 547 l 287 358 l 111 358 z m 78 189 l 254 189 l 217 0 l 41 0 z"},"$":{"x_min":0,"x_max":696,"ha":696,"o":"m 291 -147 l 212 -147 l 241 0 q 179 2 125 13 q 72 23 27 42 l 51 170 q 98 143 151 128 q 204 113 262 111 l 292 263 q 189 278 143 318 q 96 357 96 427 q 96 524 169 584 q 242 644 367 648 l 388 760 l 467 760 l 446 649 q 495 646 541 638 q 587 629 630 616 l 606 492 q 575 510 529 522 q 482 533 424 537 l 396 396 q 500 378 550 339 q 600 299 600 234 q 600 126 527 65 q 453 4 319 0 z m 320 408 l 345 536 q 304 532 279 512 q 255 493 255 463 q 255 439 271 426 q 287 413 320 408 z m 368 250 l 341 111 q 390 113 416 134 q 442 155 442 192 q 442 217 424 231 q 406 245 368 250 z"},"?":{"x_min":0,"x_max":580,"ha":580,"o":"m 138 174 l 314 174 l 280 0 l 104 0 z m 328 246 l 152 246 l 156 270 q 164 309 185 340 q 206 370 270 420 l 306 448 q 345 478 362 504 q 380 530 380 556 q 380 584 360 599 q 340 614 303 614 q 264 614 215 597 q 166 581 110 549 l 140 702 q 202 723 253 732 q 305 742 352 742 q 447 742 500 700 q 554 659 554 586 q 554 528 528 482 q 502 436 440 386 l 403 357 q 364 327 350 308 q 336 289 332 268 z"},"<":{"x_min":0,"x_max":838,"ha":838,"o":"m 732 475 l 261 313 l 732 152 l 732 30 l 106 256 l 106 371 l 732 597 z"},"'":{"x_min":0,"x_max":306,"ha":306,"o":"m 211 729 l 211 458 l 95 458 l 95 729 z"},"=":{"x_min":0,"x_max":838,"ha":838,"o":"m 106 482 l 732 482 l 732 367 l 106 367 z m 106 260 l 732 260 l 732 144 l 106 144 z"},"a":{"x_min":0,"x_max":675,"ha":675,"o":"m 329 246 q 264 246 230 226 q 197 206 197 166 q 197 136 217 119 q 236 102 271 102 q 325 102 361 135 q 397 167 409 226 l 413 246 z m 602 312 l 541 0 l 366 0 l 381 81 q 338 32 290 9 q 242 -14 186 -14 q 108 -14 63 26 q 17 66 17 135 q 17 239 98 295 q 179 350 331 350 l 434 350 l 436 364 q 438 371 438 374 q 438 376 438 379 q 438 411 407 427 q 377 444 317 444 q 263 444 212 433 q 161 421 114 399 l 140 532 q 195 546 252 553 q 310 560 371 560 q 493 560 552 518 q 611 477 611 391 q 611 375 609 355 q 606 335 602 312 z"},"L":{"x_min":0,"x_max":637,"ha":637,"o":"m 163 729 l 351 729 l 237 142 l 566 142 l 539 0 l 21 0 z"},"3":{"x_min":0,"x_max":696,"ha":696,"o":"m 472 393 q 527 380 558 342 q 589 303 589 247 q 589 126 493 56 q 397 -14 229 -14 q 166 -14 108 -5 q 51 4 0 22 l 28 167 q 71 142 123 128 q 174 114 225 114 q 308 114 356 145 q 404 176 404 228 q 404 271 367 293 q 331 315 257 315 l 182 315 l 206 436 l 285 436 q 362 436 406 464 q 451 492 451 539 q 451 576 420 596 q 389 615 330 615 q 289 615 240 604 q 191 594 138 573 l 165 711 q 223 727 279 734 q 334 742 389 742 q 513 742 575 701 q 637 660 637 579 q 637 506 594 458 q 551 409 472 393 z"},";":{"x_min":0,"x_max":400,"ha":400,"o":"m 78 189 l 254 189 l 225 40 l 69 -142 l -35 -142 l 49 40 z m 147 547 l 323 547 l 287 358 l 111 358 z"},"J":{"x_min":0,"x_max":372,"ha":372,"o":"m 163 729 l 351 729 l 223 71 q 195 -72 112 -136 q 29 -200 -128 -200 l -166 -200 l -138 -58 l -109 -58 q -51 -58 -14 -25 q 23 8 35 71 z"},"V":{"x_min":0,"x_max":774,"ha":774,"o":"m 76 729 l 255 729 l 344 184 l 646 729 l 840 729 l 428 0 l 204 0 z"},"\"":{"x_min":0,"x_max":521,"ha":521,"o":"m 426 729 l 426 458 l 310 458 l 310 729 z m 211 729 l 211 458 l 95 458 l 95 729 z"},"7":{"x_min":0,"x_max":696,"ha":696,"o":"m 144 729 l 694 729 l 672 622 l 266 0 l 78 0 l 464 591 l 118 591 z"},"S":{"x_min":0,"x_max":720,"ha":720,"o":"m 665 706 l 635 552 q 580 579 526 593 q 472 606 421 606 q 351 606 311 584 q 272 562 272 523 q 272 498 289 484 q 307 470 361 457 l 438 438 q 535 414 580 367 q 625 321 625 248 q 625 129 535 58 q 445 -14 293 -14 q 222 -14 152 -1 q 82 12 15 38 l 45 197 q 110 159 171 141 q 232 122 292 122 q 356 122 397 148 q 437 175 437 216 q 437 243 419 258 q 401 272 340 288 l 263 307 q 178 328 137 374 q 95 419 95 491 q 95 605 182 674 q 270 742 417 742 q 476 742 538 733 q 601 724 665 706 z"},"}":{"x_min":0,"x_max":712,"ha":712,"o":"m 65 -53 l 99 -53 q 167 -53 193 -31 q 218 -10 231 59 l 247 140 q 262 216 291 251 q 320 286 376 299 q 337 308 318 330 q 300 352 300 390 q 300 402 302 418 q 304 435 308 457 l 324 538 q 328 559 330 571 q 331 583 331 592 q 331 625 311 637 q 292 650 235 650 l 202 650 l 223 760 l 330 760 q 417 760 461 730 q 505 700 505 640 q 505 626 503 612 q 501 597 498 580 l 479 480 q 476 465 475 452 q 473 439 473 428 q 473 385 496 368 q 519 350 575 350 l 606 350 l 584 241 l 554 241 q 485 241 453 213 q 421 184 407 111 l 389 17 q 371 -77 314 -120 q 257 -163 150 -163 l 44 -163 z"},"Z":{"x_min":0,"x_max":725,"ha":725,"o":"m 127 729 l 740 729 l 717 613 l 244 142 l 637 142 l 609 0 l -26 0 l -4 116 l 470 587 l 99 587 z"},"x":{"x_min":0,"x_max":645,"ha":645,"o":"m 221 280 l 76 547 l 258 547 l 339 385 l 481 547 l 671 547 l 422 281 l 574 0 l 392 0 l 306 173 l 149 0 l -41 0 z"},")":{"x_min":0,"x_max":457,"ha":457,"o":"m 146 759 l 289 759 q 327 679 345 601 q 364 523 364 445 q 364 299 302 156 q 240 12 116 -132 l -27 -132 q 87 20 143 168 q 199 316 199 466 q 199 539 186 612 q 173 684 146 759 z"},"&":{"x_min":0,"x_max":872,"ha":872,"o":"m 428 447 l 573 264 q 604 295 625 338 q 647 381 661 437 l 813 437 q 792 352 753 282 q 714 212 656 157 l 781 0 l 567 0 l 526 52 q 468 19 411 2 q 353 -14 293 -14 q 173 -14 101 46 q 28 106 28 203 q 28 277 74 339 q 121 400 219 456 q 207 478 200 500 q 194 521 194 545 q 194 631 268 687 q 341 742 458 742 q 502 742 549 735 q 596 728 645 714 l 619 578 q 577 602 538 613 q 500 624 461 624 q 419 624 395 606 q 370 589 370 559 q 370 541 385 512 q 399 483 428 447 z m 281 363 q 242 338 221 305 q 201 273 201 236 q 201 184 238 148 q 275 112 331 112 q 360 112 389 122 q 418 132 447 153 z"},"_":{"x_min":0,"x_max":500,"ha":500,"o":"m 510 -143 l 510 -236 l -10 -236 l -10 -143 z"},"v":{"x_min":0,"x_max":652,"ha":652,"o":"m 63 547 l 224 547 l 295 165 l 501 547 l 678 547 l 357 0 l 172 0 z"},"O":{"x_min":0,"x_max":850,"ha":850,"o":"m 615 430 q 615 516 576 561 q 538 606 464 606 q 366 606 300 518 q 234 431 234 299 q 234 215 272 168 q 311 122 380 122 q 436 122 480 146 q 523 169 554 216 q 583 260 599 316 q 615 372 615 430 z m 491 742 q 637 742 725 661 q 814 581 814 450 q 814 361 787 282 q 760 203 708 140 q 645 62 558 24 q 471 -14 358 -14 q 213 -14 125 66 q 36 147 36 278 q 36 367 63 446 q 90 525 142 589 q 205 666 291 704 q 378 742 491 742 z"},"(":{"x_min":0,"x_max":457,"ha":457,"o":"m 295 -132 l 153 -132 q 115 -51 96 27 q 77 105 77 182 q 77 326 139 470 q 201 614 326 759 l 468 759 q 354 607 298 459 q 242 311 242 162 q 242 89 255 16 q 269 -57 295 -132 z"},"C":{"x_min":0,"x_max":734,"ha":734,"o":"m 606 34 q 539 10 477 -2 q 415 -14 359 -14 q 212 -14 124 66 q 36 147 36 280 q 36 367 64 445 q 92 522 146 586 q 210 661 300 702 q 390 742 494 742 q 551 742 608 729 q 665 715 724 688 l 694 537 q 647 573 600 589 q 552 606 498 606 q 385 606 309 519 q 233 432 233 302 q 233 218 280 170 q 327 122 409 122 q 458 122 514 140 q 569 158 638 196 z"},"W":{"x_min":0,"x_max":1103,"ha":1103,"o":"m 107 729 l 281 729 l 303 199 l 532 729 l 711 729 l 735 199 l 956 729 l 1143 729 l 829 0 l 616 0 l 592 554 l 356 0 l 138 0 z"},"A":{"x_min":0,"x_max":774,"ha":774,"o":"m 491 133 l 200 133 l 128 0 l -65 0 l 347 729 l 562 729 l 691 0 l 512 0 z m 271 265 l 467 265 l 423 546 z"},"f":{"x_min":0,"x_max":435,"ha":435,"o":"m 540 760 l 517 645 l 421 645 q 384 645 367 632 q 351 618 344 585 l 336 547 l 484 547 l 460 422 l 312 422 l 230 0 l 54 0 l 136 422 l 50 422 l 74 547 l 160 547 l 168 585 q 186 676 243 718 q 300 760 406 760 z"},"Q":{"x_min":0,"x_max":850,"ha":850,"o":"m 371 -13 q 366 -14 360 -14 q 355 -14 343 -14 q 288 -14 239 1 q 190 16 150 46 q 96 85 66 147 q 36 208 36 278 q 36 367 63 447 q 90 526 142 589 q 205 667 291 704 q 377 742 491 742 q 637 742 725 661 q 814 581 814 450 q 814 297 740 181 q 665 66 532 13 l 644 -146 l 465 -146 z m 615 430 q 615 516 576 561 q 538 606 464 606 q 366 606 300 518 q 234 431 234 299 q 234 215 272 168 q 311 122 380 122 q 436 122 480 146 q 523 169 554 216 q 583 260 599 316 q 615 372 615 430 z"},"w":{"x_min":0,"x_max":924,"ha":924,"o":"m 87 547 l 248 547 l 267 171 l 432 547 l 571 547 l 591 172 l 755 547 l 927 547 l 677 0 l 491 0 l 473 376 l 306 0 l 125 0 z"},"-":{"x_min":0,"x_max":415,"ha":415,"o":"m 53 359 l 360 359 l 332 217 l 25 217 z"},"E":{"x_min":0,"x_max":683,"ha":683,"o":"m 163 729 l 670 729 l 642 587 l 323 587 l 297 451 l 597 451 l 569 309 l 269 309 l 237 142 l 566 142 l 539 0 l 21 0 z"},"s":{"x_min":0,"x_max":595,"ha":595,"o":"m 560 530 l 534 394 q 483 418 432 431 q 381 444 336 444 q 284 444 256 430 q 228 417 228 392 q 228 377 244 369 q 259 360 305 350 l 337 344 q 443 322 485 286 q 528 251 528 188 q 528 93 453 39 q 378 -14 244 -14 q 188 -14 129 -5 q 71 3 10 21 l 36 158 q 83 130 137 116 q 191 102 248 102 q 303 102 331 115 q 359 128 359 154 q 359 171 343 181 q 328 191 279 201 l 247 207 q 153 227 113 265 q 73 303 73 370 q 73 461 142 511 q 211 560 340 560 q 396 560 450 552 q 505 545 560 530 z"},">":{"x_min":0,"x_max":838,"ha":838,"o":"m 106 475 l 106 597 l 732 371 l 732 256 l 106 30 l 106 152 l 577 313 z"},"l":{"x_min":0,"x_max":343,"ha":343,"o":"m 178 760 l 354 760 l 206 0 l 31 0 z"},"8":{"x_min":0,"x_max":696,"ha":696,"o":"m 336 326 q 279 326 240 287 q 202 249 202 192 q 202 151 227 128 q 252 104 295 104 q 353 104 391 142 q 429 181 429 238 q 429 278 404 302 q 379 326 336 326 z m 216 388 q 163 410 137 445 q 111 480 111 530 q 111 629 192 686 q 273 742 417 742 q 532 742 596 699 q 659 656 659 578 q 659 509 615 459 q 571 410 489 388 q 548 365 577 327 q 605 288 605 229 q 605 117 517 51 q 430 -14 277 -14 q 156 -14 89 34 q 22 82 22 168 q 22 246 73 304 q 125 362 216 388 z m 400 624 q 350 624 320 595 q 290 566 290 518 q 290 485 312 464 q 333 444 369 444 q 419 444 449 473 q 479 502 479 550 q 479 583 457 604 q 436 624 400 624 z"},"\\":{"x_min":0,"x_max":365,"ha":365,"o":"m 168 -93 l 71 729 l 179 729 l 276 -93 z"},"e":{"x_min":0,"x_max":678,"ha":678,"o":"m 629 253 l 623 225 l 214 225 q 214 222 213 217 q 213 211 213 208 q 213 155 245 128 q 277 102 341 102 q 396 102 457 119 q 519 135 586 168 l 559 32 q 495 9 432 -3 q 369 -14 303 -14 q 175 -14 106 45 q 36 104 36 212 q 36 274 58 333 q 81 392 123 441 q 173 500 243 530 q 313 560 399 560 q 510 560 575 501 q 640 442 640 342 q 640 322 637 301 q 635 279 629 253 z m 464 333 q 465 339 466 346 q 467 353 467 359 q 467 398 443 421 q 420 444 380 444 q 329 444 293 416 q 257 388 238 333 z"},"b":{"x_min":0,"x_max":716,"ha":716,"o":"m 406 433 q 338 433 296 371 q 253 309 253 209 q 253 164 277 138 q 301 113 344 113 q 410 113 453 174 q 496 235 496 331 q 496 381 473 407 q 450 433 406 433 z m 222 79 l 206 0 l 31 0 l 178 760 l 354 760 l 297 467 q 337 515 381 537 q 425 560 477 560 q 569 560 623 501 q 677 443 677 342 q 677 279 658 219 q 639 160 604 111 q 560 49 504 18 q 448 -14 384 -14 q 328 -14 288 9 q 249 31 222 79 z"},"%":{"x_min":0,"x_max":1002,"ha":1002,"o":"m 764 301 q 722 301 695 260 q 668 219 668 154 q 668 111 683 90 q 698 69 728 69 q 771 69 797 110 q 824 151 824 217 q 824 258 809 280 q 793 301 764 301 z m 778 383 q 854 383 901 341 q 947 299 947 231 q 947 122 882 54 q 817 -14 713 -14 q 636 -14 590 28 q 544 70 544 139 q 544 248 609 315 q 673 383 778 383 z m 260 -14 l 140 -14 l 743 742 l 863 742 z m 290 742 q 366 742 413 700 q 459 658 459 590 q 459 481 394 413 q 329 345 224 345 q 147 345 101 387 q 55 428 55 497 q 55 605 120 674 q 186 742 290 742 z m 275 660 q 233 660 206 619 q 179 578 179 513 q 179 470 194 448 q 209 427 239 427 q 281 427 308 468 q 335 510 335 576 q 335 617 320 639 q 304 660 275 660 z"},"m":{"x_min":0,"x_max":1042,"ha":1042,"o":"m 627 456 q 667 506 719 533 q 771 560 826 560 q 899 560 942 520 q 984 479 984 409 q 984 395 982 376 q 979 357 975 333 l 910 0 l 734 0 l 789 285 l 791 292 q 803 353 803 370 q 803 397 788 413 q 772 428 746 428 q 696 428 661 387 q 626 346 611 269 l 558 0 l 382 0 l 438 285 q 445 322 448 341 q 451 359 451 370 q 451 397 436 413 q 421 428 394 428 q 346 428 309 385 q 273 343 259 269 l 206 0 l 31 0 l 137 547 l 313 547 l 297 467 q 338 513 384 537 q 431 560 481 560 q 538 560 578 531 q 619 502 627 456 z"},"#":{"x_min":0,"x_max":696,"ha":696,"o":"m 500 426 l 371 426 l 337 292 l 466 292 z m 445 718 l 398 530 l 527 530 l 574 718 l 682 718 l 635 530 l 780 530 l 754 426 l 609 426 l 575 292 l 720 292 l 694 187 l 550 187 l 503 0 l 395 0 l 442 187 l 313 187 l 266 0 l 157 0 l 204 187 l 65 187 l 91 292 l 228 292 l 262 426 l 124 426 l 150 530 l 289 530 l 336 718 z"},",":{"x_min":0,"x_max":380,"ha":380,"o":"m 80 189 l 256 189 l 227 40 l 70 -142 l -34 -142 l 51 40 z"},"n":{"x_min":0,"x_max":712,"ha":712,"o":"m 645 333 l 580 0 l 405 0 l 460 285 q 466 313 469 332 q 472 352 472 363 q 472 394 455 411 q 438 428 406 428 q 352 428 313 386 q 274 344 259 269 l 206 0 l 31 0 l 137 547 l 313 547 l 297 467 q 345 514 394 537 q 443 560 496 560 q 572 560 613 521 q 654 481 654 409 q 654 394 652 375 q 649 355 645 333 z"},"h":{"x_min":0,"x_max":712,"ha":712,"o":"m 645 333 l 580 0 l 405 0 l 460 285 q 466 313 469 332 q 472 352 472 363 q 472 394 455 411 q 438 428 406 428 q 352 428 313 386 q 274 344 259 269 l 206 0 l 31 0 l 178 760 l 354 760 l 297 467 q 345 514 394 537 q 443 560 496 560 q 572 560 613 521 q 654 481 654 409 q 654 394 652 375 q 649 355 645 333 z"},"z":{"x_min":0,"x_max":582,"ha":582,"o":"m 109 547 l 586 547 l 562 425 l 221 125 l 504 125 l 480 0 l -9 0 l 14 122 l 356 422 l 85 422 z"},"B":{"x_min":0,"x_max":762,"ha":762,"o":"m 400 447 q 450 447 479 472 q 507 498 507 542 q 507 571 487 586 q 467 601 430 601 l 325 601 l 295 447 z m 344 128 q 409 128 443 159 q 478 189 478 247 q 478 284 454 301 q 430 319 381 319 l 270 319 l 233 128 z m 567 390 q 615 376 641 340 q 667 304 667 250 q 667 132 579 66 q 492 0 333 0 l 21 0 l 163 729 l 445 729 q 575 729 637 691 q 699 653 699 573 q 699 506 663 456 q 626 405 567 390 z"},"K":{"x_min":0,"x_max":775,"ha":775,"o":"m 163 729 l 351 729 l 300 467 l 610 729 l 837 729 l 419 375 l 734 0 l 513 0 l 268 304 l 209 0 l 21 0 z"},"R":{"x_min":0,"x_max":770,"ha":770,"o":"m 367 406 q 431 406 464 436 q 497 465 497 523 q 497 559 474 576 q 452 593 403 593 l 325 593 l 288 406 z m 263 276 l 209 0 l 21 0 l 163 729 l 441 729 q 561 729 623 684 q 685 639 685 552 q 685 463 636 406 q 587 349 504 341 q 542 333 567 302 q 593 271 612 207 l 674 0 l 487 0 l 432 181 q 416 235 392 256 q 368 276 323 276 z"},"T":{"x_min":0,"x_max":682,"ha":682,"o":"m 76 729 l 748 729 l 720 587 l 478 587 l 364 0 l 176 0 l 290 587 l 48 587 z"},"P":{"x_min":0,"x_max":733,"ha":733,"o":"m 163 729 l 475 729 q 590 729 655 677 q 719 624 719 531 q 719 474 698 422 q 676 371 636 332 q 593 291 533 272 q 473 253 382 253 l 258 253 l 209 0 l 21 0 z m 325 593 l 285 389 l 389 389 q 456 389 491 420 q 526 452 526 511 q 526 551 501 572 q 476 593 428 593 z"},"|":{"x_min":0,"x_max":365,"ha":365,"o":"m 238 764 l 238 -236 l 127 -236 l 127 764 z"},"t":{"x_min":0,"x_max":478,"ha":478,"o":"m 360 702 l 330 547 l 509 547 l 484 422 l 305 422 l 260 190 q 258 183 258 177 q 257 172 257 167 q 257 145 272 135 q 287 125 322 125 l 412 125 l 387 0 l 240 0 q 161 0 120 33 q 78 66 78 129 q 78 143 80 158 q 81 174 84 190 l 129 422 l 43 422 l 67 547 l 154 547 l 184 702 z"},"M":{"x_min":0,"x_max":995,"ha":995,"o":"m 163 729 l 394 729 l 488 342 l 734 729 l 974 729 l 832 0 l 654 0 l 758 538 l 505 140 l 404 140 l 303 538 l 199 0 l 21 0 z"},"g":{"x_min":0,"x_max":716,"ha":716,"o":"m 418 93 q 376 45 333 22 q 289 0 238 0 q 145 0 91 60 q 37 120 37 223 q 37 278 56 334 q 75 389 110 438 q 153 497 208 528 q 264 559 328 559 q 386 559 425 537 q 464 514 491 466 l 506 547 l 682 547 l 590 72 q 562 -75 469 -146 q 376 -216 211 -216 q 160 -216 113 -208 q 66 -200 20 -184 l 46 -48 q 87 -74 129 -87 q 170 -100 214 -100 q 301 -100 347 -63 q 394 -26 410 55 z m 369 433 q 305 433 262 375 q 219 317 219 229 q 219 179 242 153 q 265 127 309 127 q 373 127 416 185 q 459 243 459 329 q 459 380 436 406 q 413 433 369 433 z"},"j":{"x_min":0,"x_max":343,"ha":343,"o":"m 137 547 l 313 547 l 208 10 q 186 -105 124 -160 q 63 -216 -41 -216 l -128 -216 l -106 -101 l -75 -101 q -26 -101 -3 -79 q 20 -57 32 10 z m 178 760 l 354 760 l 326 617 l 150 617 z"},"i":{"x_min":0,"x_max":343,"ha":343,"o":"m 137 547 l 313 547 l 206 0 l 31 0 z m 178 760 l 354 760 l 326 617 l 150 617 z"},"y":{"x_min":0,"x_max":652,"ha":652,"o":"m 66 547 l 231 547 l 306 168 l 500 547 l 687 547 l 341 -52 q 283 -153 233 -184 q 184 -216 106 -216 l 0 -216 l 18 -101 l 73 -101 q 116 -101 140 -87 q 164 -72 182 -36 l 198 -7 z"},"@":{"x_min":0,"x_max":1000,"ha":1000,"o":"m 505 391 q 453 391 416 340 q 379 289 379 218 q 379 177 399 155 q 418 134 456 134 q 508 134 544 183 q 580 232 580 303 q 580 345 561 368 q 541 391 505 391 z m 560 120 q 538 83 501 63 q 465 43 421 43 q 351 43 311 89 q 271 135 271 217 q 271 325 340 403 q 410 482 506 482 q 546 482 577 461 q 607 441 617 407 l 629 472 l 728 472 l 663 134 q 737 145 786 214 q 836 283 836 376 q 836 480 756 546 q 675 612 547 612 q 451 612 369 575 q 287 538 229 468 q 184 414 161 350 q 137 285 137 216 q 137 84 218 1 q 299 -82 426 -82 q 483 -82 540 -61 q 596 -40 647 1 l 700 -76 q 629 -124 559 -148 q 489 -172 420 -172 q 354 -172 293 -152 q 232 -132 184 -94 q 116 -42 80 36 q 45 114 45 212 q 45 298 74 378 q 104 458 159 525 q 230 611 331 657 q 431 703 547 703 q 628 703 697 680 q 766 658 820 613 q 871 569 899 511 q 927 453 927 389 q 927 235 827 139 q 727 43 565 43 q 562 43 558 42 q 554 42 552 42 q 549 42 548 42 q 546 42 545 43 z"},".":{"x_min":0,"x_max":380,"ha":380,"o":"m 83 189 l 259 189 l 222 0 l 46 0 z"},"p":{"x_min":0,"x_max":716,"ha":716,"o":"m 222 79 l 166 -208 l -10 -208 l 137 547 l 313 547 l 297 467 q 337 515 381 537 q 425 560 477 560 q 569 560 623 501 q 677 443 677 342 q 677 279 658 219 q 639 160 604 111 q 560 49 504 18 q 448 -14 384 -14 q 328 -14 288 9 q 249 31 222 79 z m 406 433 q 338 433 296 371 q 253 309 253 209 q 253 164 277 138 q 301 113 344 113 q 410 113 453 174 q 496 235 496 331 q 496 381 473 407 q 450 433 406 433 z"},"X":{"x_min":0,"x_max":771,"ha":771,"o":"m 496 369 l 675 0 l 484 0 l 365 244 l 152 0 l -51 0 l 277 374 l 104 729 l 296 729 l 408 500 l 608 729 l 812 729 z"},"*":{"x_min":0,"x_max":523,"ha":523,"o":"m 503 594 l 342 510 l 503 425 l 466 356 l 303 446 l 303 278 l 220 278 l 220 446 l 57 356 l 20 425 l 183 510 l 20 594 l 57 663 l 220 574 l 220 742 l 303 742 l 303 574 l 466 663 z"},"Y":{"x_min":0,"x_max":724,"ha":724,"o":"m 63 729 l 251 729 l 375 459 l 592 729 l 809 729 l 449 304 l 390 0 l 202 0 l 261 304 z"},"c":{"x_min":0,"x_max":593,"ha":593,"o":"m 581 530 l 553 387 q 518 411 484 423 q 450 435 417 435 q 332 435 277 378 q 223 320 223 231 q 223 174 257 142 q 291 111 352 111 q 393 111 433 123 q 472 135 508 159 l 481 16 q 438 1 394 -7 q 350 -14 305 -14 q 176 -14 107 44 q 37 102 37 208 q 37 275 63 338 q 88 401 136 451 q 189 506 258 533 q 327 560 417 560 q 458 560 500 552 q 541 545 581 530 z"},"!":{"x_min":0,"x_max":456,"ha":456,"o":"m 211 729 l 387 729 l 332 449 l 268 245 l 142 245 l 156 449 z m 103 174 l 279 174 l 245 0 l 69 0 z"},"/":{"x_min":0,"x_max":365,"ha":365,"o":"m 321 729 l 434 729 l 17 -93 l -96 -93 z"},"[":{"x_min":0,"x_max":457,"ha":457,"o":"m 163 760 l 466 760 l 444 650 l 308 650 l 177 -22 l 314 -22 l 292 -132 l -10 -132 z"},"6":{"x_min":0,"x_max":696,"ha":696,"o":"m 362 360 q 306 360 271 314 q 235 268 235 196 q 235 152 257 128 q 279 104 318 104 q 373 104 409 149 q 445 194 445 263 q 445 310 423 335 q 402 360 362 360 z m 660 710 l 634 575 q 592 597 552 607 q 513 618 473 618 q 382 618 326 569 q 270 521 258 432 q 296 457 336 469 q 376 481 422 481 q 512 481 569 428 q 626 375 626 292 q 626 157 538 71 q 450 -15 311 -15 q 187 -15 118 55 q 50 126 50 255 q 50 354 80 445 q 110 536 165 601 q 224 671 303 706 q 383 741 483 741 q 529 741 572 733 q 616 726 660 710 z"},"r":{"x_min":0,"x_max":493,"ha":493,"o":"m 514 398 q 496 408 474 414 q 452 419 427 419 q 360 419 316 376 q 271 333 256 252 l 206 0 l 31 0 l 137 547 l 313 547 l 294 453 q 329 505 381 532 q 433 560 496 560 q 505 560 517 559 q 529 558 545 556 z"},"2":{"x_min":0,"x_max":696,"ha":696,"o":"m 247 138 l 564 138 l 537 0 l 8 0 l 35 139 l 345 373 q 396 412 423 452 q 449 492 449 530 q 449 570 422 592 q 395 614 345 614 q 299 614 242 595 q 185 577 113 539 l 144 694 q 210 718 274 730 q 338 742 401 742 q 512 742 576 694 q 640 646 640 563 q 640 492 601 433 q 562 375 429 275 z"},"{":{"x_min":0,"x_max":712,"ha":712,"o":"m 511 -53 l 490 -163 l 384 -163 q 296 -163 252 -133 q 208 -103 208 -43 q 208 -32 210 -18 q 211 -3 215 17 l 233 111 q 236 125 237 139 q 239 152 239 163 q 239 206 217 224 q 194 241 137 241 l 106 241 l 128 350 l 158 350 q 227 350 259 378 q 291 407 305 480 l 324 580 q 342 674 399 717 q 456 760 563 760 l 669 760 l 648 650 l 614 650 q 546 650 521 629 q 496 607 482 538 l 466 457 q 451 381 422 346 q 394 311 338 299 q 377 289 395 267 q 413 245 413 207 q 413 192 411 176 q 409 160 405 140 l 389 59 q 385 37 383 25 q 382 13 382 5 q 382 -28 402 -41 q 421 -53 478 -53 z"},"9":{"x_min":0,"x_max":696,"ha":696,"o":"m 41 16 l 67 151 q 109 129 149 118 q 188 108 228 108 q 319 108 375 157 q 431 206 443 294 q 405 269 365 257 q 325 245 280 245 q 190 245 133 298 q 76 352 76 434 q 76 569 164 655 q 252 741 391 741 q 516 741 584 671 q 652 600 652 471 q 652 372 622 281 q 591 191 536 125 q 478 55 398 20 q 319 -15 219 -15 q 173 -15 129 -7 q 85 0 41 16 z m 339 366 q 395 366 430 412 q 466 458 466 530 q 466 574 445 598 q 423 622 384 622 q 329 622 292 577 q 256 531 256 463 q 256 416 277 391 q 299 366 339 366 z"}," ":{"x_min":0,"x_max":348,"ha":348,"o":""},"I":{"x_min":0,"x_max":372,"ha":372,"o":"m 163 729 l 351 729 l 209 0 l 21 0 z"},"H":{"x_min":0,"x_max":837,"ha":837,"o":"m 163 729 l 351 729 l 297 451 l 574 451 l 628 729 l 816 729 l 674 0 l 486 0 l 546 309 l 269 309 l 209 0 l 21 0 z"},"4":{"x_min":0,"x_max":696,"ha":696,"o":"m 412 569 l 153 269 l 353 269 z m 407 729 l 621 729 l 531 269 l 635 269 l 609 133 l 505 133 l 479 0 l 301 0 l 327 133 l -1 133 l 31 294 z"},"~":{"x_min":0,"x_max":838,"ha":838,"o":"m 732 415 l 732 296 q 680 257 636 240 q 593 223 546 223 q 494 223 424 251 q 417 254 413 256 q 410 257 402 260 q 327 290 281 290 q 238 290 196 271 q 154 252 106 212 l 106 331 q 158 370 202 387 q 245 404 292 404 q 344 404 414 375 q 421 373 425 371 q 428 370 436 367 q 511 337 557 337 q 599 337 640 355 q 682 374 732 415 z"},"D":{"x_min":0,"x_max":830,"ha":830,"o":"m 324 587 l 237 142 l 304 142 q 436 142 512 216 q 589 290 589 415 q 589 500 539 543 q 489 587 390 587 z m 163 729 l 361 729 q 502 729 573 712 q 644 695 691 656 q 738 616 762 560 q 786 503 786 432 q 786 333 745 245 q 705 158 631 98 q 566 45 481 22 q 396 0 219 0 l 21 0 z"},"^":{"x_min":0,"x_max":838,"ha":838,"o":"m 479 729 l 737 457 l 619 457 l 419 604 l 219 457 l 101 457 l 359 729 z"},"0":{"x_min":0,"x_max":696,"ha":696,"o":"m 299 114 q 336 114 365 136 q 395 159 414 202 q 428 233 439 272 q 450 312 460 365 q 468 409 473 445 q 477 482 477 508 q 477 562 458 588 q 438 614 397 614 q 359 614 330 592 q 301 570 282 526 q 268 494 256 454 q 244 413 235 365 q 227 321 222 284 q 218 246 218 220 q 218 166 238 140 q 258 114 299 114 z m 660 480 q 660 383 633 291 q 606 199 558 130 q 509 59 439 22 q 369 -14 283 -14 q 164 -14 100 54 q 36 122 36 249 q 36 345 63 437 q 89 529 137 597 q 188 669 257 706 q 326 742 413 742 q 532 742 596 674 q 660 606 660 480 z"},"F":{"x_min":0,"x_max":683,"ha":683,"o":"m 163 729 l 670 729 l 642 587 l 323 587 l 297 451 l 597 451 l 569 309 l 269 309 l 209 0 l 21 0 z"},"`":{"x_min":0,"x_max":500,"ha":500,"o":"m 269 800 l 371 616 l 275 616 l 131 800 z"},"k":{"x_min":0,"x_max":665,"ha":665,"o":"m 178 760 l 354 760 l 274 348 l 510 547 l 716 547 l 398 294 l 629 0 l 429 0 l 252 236 l 206 0 l 31 0 z"},"u":{"x_min":0,"x_max":712,"ha":712,"o":"m 68 213 l 132 547 l 307 547 l 252 262 q 246 234 243 215 q 240 195 240 184 q 240 153 257 136 q 274 119 306 119 q 360 119 399 161 q 438 203 453 278 l 506 547 l 681 547 l 575 0 l 399 0 l 415 80 q 370 33 321 9 q 271 -14 217 -14 q 142 -14 101 25 q 60 65 60 137 q 60 154 62 173 q 64 192 68 213 z"},"]":{"x_min":0,"x_max":457,"ha":457,"o":"m 275 -132 l -28 -132 l -7 -22 l 130 -22 l 261 650 l 124 650 l 145 760 l 448 760 z"},"U":{"x_min":0,"x_max":812,"ha":812,"o":"m 163 729 l 351 729 l 266 292 q 261 269 259 251 q 257 233 257 219 q 257 171 282 148 q 308 124 359 124 q 427 124 464 162 q 500 201 518 292 l 603 729 l 791 729 l 706 292 q 674 131 586 58 q 497 -14 332 -14 q 203 -14 135 41 q 68 97 68 202 q 68 220 70 241 q 73 263 78 292 z"},"o":{"x_min":0,"x_max":687,"ha":687,"o":"m 375 435 q 307 435 263 374 q 219 312 219 217 q 219 165 243 138 q 267 111 312 111 q 380 111 424 173 q 468 234 468 330 q 468 381 444 408 q 420 435 375 435 z m 389 560 q 511 560 581 498 q 651 436 651 329 q 651 267 629 209 q 607 150 565 102 q 515 44 447 15 q 379 -14 296 -14 q 175 -14 106 48 q 36 110 36 217 q 36 278 59 337 q 81 396 123 445 q 172 501 240 531 q 307 560 389 560 z"},"N":{"x_min":0,"x_max":837,"ha":837,"o":"m 163 729 l 373 729 l 540 224 l 638 729 l 816 729 l 674 0 l 464 0 l 297 505 l 199 0 l 21 0 z"},"+":{"x_min":0,"x_max":838,"ha":838,"o":"m 477 627 l 477 371 l 732 371 l 732 256 l 477 256 l 477 0 l 361 0 l 361 256 l 106 256 l 106 371 l 361 371 l 361 627 z"},"G":{"x_min":0,"x_max":821,"ha":821,"o":"m 681 54 q 610 20 533 3 q 457 -14 369 -14 q 214 -14 125 65 q 36 144 36 280 q 36 368 64 446 q 92 523 147 587 q 214 665 306 704 q 397 742 515 742 q 581 742 647 729 q 713 715 778 688 l 749 537 q 689 572 633 589 q 576 606 518 606 q 392 606 313 522 q 234 438 234 306 q 234 219 280 170 q 326 122 410 122 q 438 122 465 126 q 492 129 520 137 l 548 279 l 433 279 l 457 405 l 749 405 z"},"q":{"x_min":0,"x_max":716,"ha":716,"o":"m 491 467 l 506 547 l 682 547 l 535 -208 l 359 -208 l 415 79 q 376 31 332 9 q 288 -14 236 -14 q 144 -14 90 44 q 36 103 36 204 q 36 267 55 327 q 74 386 109 435 q 153 497 209 528 q 265 560 329 560 q 385 560 425 537 q 464 515 491 467 z m 307 113 q 375 113 417 175 q 459 237 459 337 q 459 382 435 408 q 412 433 369 433 q 303 433 260 372 q 217 311 217 215 q 217 165 240 139 q 263 113 307 113 z"},"d":{"x_min":0,"x_max":716,"ha":716,"o":"m 307 113 q 375 113 417 175 q 459 237 459 337 q 459 382 435 408 q 412 433 369 433 q 303 433 260 372 q 217 311 217 215 q 217 165 240 139 q 263 113 307 113 z m 491 467 l 548 760 l 724 760 l 576 0 l 400 0 l 416 79 q 376 31 332 9 q 288 -14 236 -14 q 144 -14 90 44 q 36 103 36 204 q 36 267 55 327 q 74 386 109 435 q 153 497 209 528 q 265 560 329 560 q 385 560 425 537 q 464 515 491 467 z"},"1":{"x_min":0,"x_max":696,"ha":696,"o":"m 69 130 l 235 130 l 326 601 l 149 566 l 174 694 l 350 729 l 529 729 l 413 130 l 578 130 l 553 0 l 43 0 z"},"5":{"x_min":0,"x_max":696,"ha":696,"o":"m 177 729 l 644 729 l 617 591 l 300 591 l 278 478 q 299 484 323 487 q 346 490 369 490 q 481 490 544 439 q 607 388 607 298 q 607 154 510 70 q 413 -14 246 -14 q 185 -14 127 -2 q 70 10 13 34 l 42 182 q 96 147 147 130 q 198 114 251 114 q 328 114 375 154 q 421 194 421 260 q 421 307 386 334 q 351 362 290 362 q 249 362 201 351 q 154 341 97 319 z"}}}
